<?xml version="1.0" standalone="no"?>
<!DOCTYPE svg PUBLIC "-//W3C//DTD SVG 20010904//EN"
 "http://www.w3.org/TR/2001/REC-SVG-20010904/DTD/svg10.dtd">
<svg version="1.0" xmlns="http://www.w3.org/2000/svg"
 width="1280.000000pt" height="1280.000000pt" viewBox="0 0 1280.000000 1280.000000"
 preserveAspectRatio="xMidYMid meet">
<g transform="translate(0.000000,1280.000000) scale(0.100000,-0.100000)"
fill="#000000" stroke="none">
<path d="M4086 12776 c-49 -28 -82 -72 -68 -89 5 -6 12 -36 14 -66 5 -47 11
-59 42 -88 29 -27 44 -33 81 -33 87 0 145 50 153 131 7 71 -16 111 -81 144
-62 30 -90 31 -141 1z"/>
<path d="M8575 12776 c-66 -30 -90 -72 -83 -145 8 -81 66 -131 153 -131 37 0
52 6 81 33 31 29 37 41 42 88 2 30 9 59 14 66 23 28 -79 113 -135 113 -12 0
-45 -11 -72 -24z"/>
<path d="M3044 12643 c-4 -38 -8 -131 -8 -208 1 -230 43 -412 141 -605 35 -69
61 -130 59 -137 -3 -6 7 -19 22 -29 14 -10 65 -54 112 -98 47 -45 111 -98 142
-119 55 -36 74 -54 66 -62 -2 -2 -56 12 -120 30 -343 100 -627 60 -850 -121
-94 -76 -91 -84 27 -64 97 17 291 14 368 -4 87 -21 202 -73 280 -129 152 -109
330 -328 472 -582 116 -208 184 -276 360 -361 137 -67 232 -87 379 -82 98 4
129 8 162 26 51 26 51 26 130 -88 225 -323 444 -731 535 -999 16 -46 35 -94
42 -105 8 -12 26 -57 40 -101 51 -152 35 -152 -74 1 -570 810 -1313 1319
-2099 1438 -165 25 -380 39 -519 33 l-135 -6 -34 39 c-25 30 -41 40 -63 40
-25 0 -29 -4 -29 -29 0 -22 10 -38 41 -65 l42 -35 -5 -84 c-8 -118 8 -443 26
-562 86 -547 341 -1050 778 -1532 157 -174 424 -405 663 -574 152 -107 152
-123 0 -72 -44 14 -89 32 -101 40 -11 7 -59 26 -105 42 -200 68 -514 225 -779
390 -112 69 -330 219 -330 227 0 3 10 24 22 47 33 64 38 253 9 368 -26 103
-92 243 -154 325 -58 76 -118 122 -272 209 -213 120 -323 200 -453 328 -140
137 -223 274 -258 424 -18 80 -20 259 -3 375 6 43 9 82 5 85 -8 9 -33 -14 -82
-78 -166 -216 -205 -497 -114 -821 16 -57 32 -111 35 -120 15 -40 -16 -14 -61
50 -26 37 -82 103 -124 147 -42 44 -84 92 -94 107 -10 15 -22 25 -28 22 -5 -3
-68 24 -141 60 -225 113 -462 157 -731 137 -76 -6 -142 -13 -145 -16 -8 -9 36
-128 85 -231 118 -243 294 -440 508 -567 26 -15 44 -31 41 -37 -3 -5 7 -12 22
-15 15 -3 84 -19 153 -35 69 -16 145 -32 170 -36 99 -13 90 -29 -25 -44 -276
-37 -522 -160 -664 -332 -52 -63 -136 -217 -130 -237 2 -5 42 15 89 46 171
112 300 160 461 170 253 15 528 -82 860 -303 201 -135 254 -157 412 -173 97
-10 236 1 329 24 35 9 105 37 156 62 l93 45 162 -109 c190 -129 330 -214 445
-272 45 -23 82 -46 82 -51 0 -5 18 -19 41 -30 71 -37 54 -36 -176 5 -264 46
-513 25 -694 -61 -200 -94 -346 -251 -424 -456 -28 -76 -31 -93 -32 -203 0
-112 2 -124 28 -177 54 -109 160 -178 288 -186 67 -4 84 -1 130 20 73 34 115
71 144 129 29 57 33 125 9 175 -20 42 -40 58 -30 23 19 -64 18 -104 -6 -148
-56 -104 -200 -121 -310 -38 -89 68 -112 169 -63 275 34 74 137 174 217 212
l63 30 190 -2 c183 -3 192 -2 244 22 30 13 96 57 145 97 98 79 179 123 264
143 63 15 281 6 365 -15 78 -19 350 -123 362 -137 5 -7 20 -12 32 -10 12 2 79
-13 150 -32 223 -61 444 -103 698 -133 174 -20 659 -23 677 -5 19 19 15 502
-5 677 -30 256 -74 489 -137 710 -16 60 -30 120 -30 135 0 14 -5 31 -12 38
-14 14 -115 286 -133 359 -21 83 -30 301 -15 365 20 85 64 166 143 264 40 49
84 115 97 145 24 52 25 61 22 244 l-2 190 30 63 c38 80 138 183 212 217 106
49 207 26 275 -63 83 -110 66 -254 -38 -310 -44 -24 -84 -25 -148 -6 -35 10
-19 -10 23 -30 48 -23 123 -20 171 5 60 31 93 67 127 136 28 58 30 69 26 140
-8 129 -77 236 -186 290 -53 26 -65 28 -177 28 -110 -1 -127 -4 -203 -32 -107
-41 -189 -92 -269 -166 -198 -186 -286 -429 -269 -747 4 -69 13 -161 22 -205
19 -102 34 -209 29 -213 -2 -2 -13 14 -25 37 -11 23 -25 41 -30 41 -5 0 -28
37 -51 82 -58 115 -143 255 -272 445 l-109 162 45 93 c75 151 103 313 86 482
-16 162 -33 203 -169 408 -164 247 -262 466 -297 663 -18 107 -13 268 12 360
23 83 82 204 148 305 31 47 51 87 46 89 -20 6 -174 -78 -237 -130 -172 -142
-295 -388 -332 -664 -15 -115 -29 -121 -45 -20 -3 22 -19 96 -35 165 -16 69
-32 138 -35 153 -3 15 -10 25 -15 22 -6 -3 -22 15 -37 41 -146 245 -380 439
-670 554 -57 22 -109 40 -117 40 -10 0 -17 -19 -22 -67z m937 -1290 c332 -338
463 -557 620 -1037 51 -156 56 -176 38 -176 -18 0 -200 173 -289 275 -92 105
-173 214 -240 320 -104 167 -222 436 -274 626 -29 105 -32 139 -13 139 7 0 79
-66 158 -147z m524 -112 c100 -155 190 -368 220 -518 15 -82 35 -313 35 -421
0 -55 -2 -63 -17 -60 -10 2 -48 52 -85 113 -156 254 -230 516 -231 811 0 181
6 186 78 75z m-712 -442 c294 -148 434 -271 618 -545 90 -134 92 -139 50 -131
-43 9 -239 107 -320 161 -174 116 -337 291 -450 483 -36 61 -45 93 -25 93 2 0
59 -28 127 -61z m-599 -594 c414 -66 777 -212 1156 -465 208 -139 464 -360
619 -533 222 -249 289 -333 434 -549 94 -139 104 -167 162 -453 54 -273 93
-645 67 -645 -7 0 -14 10 -17 23 -3 12 -17 76 -31 142 -98 444 -326 826 -639
1069 -148 114 -265 177 -444 236 -150 50 -262 69 -441 76 l-145 6 -70 48
c-101 68 -232 120 -305 120 -21 0 -22 -3 -16 -46 11 -80 54 -186 110 -269 l54
-80 6 -145 c7 -179 26 -291 76 -441 78 -235 182 -402 365 -584 146 -147 266
-233 450 -324 163 -81 321 -138 490 -175 66 -14 130 -28 143 -31 42 -10 22
-25 -33 -25 -154 0 -478 47 -735 106 -177 41 -178 42 -320 138 -480 326 -856
705 -1131 1141 -135 212 -265 497 -327 716 -74 256 -92 387 -99 708 l-6 264
264 -6 c164 -4 302 -12 363 -22z m549 -1039 c48 -7 90 -16 93 -19 12 -12 -17
-36 -63 -53 -40 -15 -49 -25 -69 -70 -25 -56 -42 -74 -53 -55 -11 17 -33 190
-26 202 8 11 12 11 118 -5z m-1675 -79 c175 -109 340 -267 447 -427 47 -71
150 -271 160 -312 4 -14 2 -28 -3 -32 -5 -3 -63 31 -128 75 -282 193 -395 320
-543 617 -82 164 -78 170 67 79z m2202 -23 c496 -83 884 -386 1125 -879 135
-276 217 -604 227 -905 l3 -105 -105 3 c-304 10 -627 91 -905 227 -470 230
-764 588 -865 1054 -22 97 -43 298 -38 351 l3 35 80 1 c121 0 143 8 152 52 4
20 7 68 6 107 -1 45 2 72 10 78 16 11 189 0 307 -19z m-365 -24 c3 -5 -6 -20
-22 -32 -34 -29 -62 -57 -91 -92 -31 -37 -43 -23 -36 41 8 67 15 75 66 83 64
11 76 11 83 0z m-2356 -110 c396 -133 739 -355 1021 -661 89 -96 104 -119 76
-119 -21 0 -297 92 -406 135 -138 55 -313 144 -415 213 -113 75 -278 217 -419
360 -136 137 -137 151 -8 117 49 -13 117 -33 151 -45z m295 -571 c113 -15 286
-61 387 -103 110 -47 323 -176 327 -198 3 -16 -5 -18 -60 -18 -108 0 -339 20
-421 35 -113 23 -235 68 -377 141 -138 71 -227 131 -214 144 20 20 199 19 358
-1z"/>
<path d="M2978 9893 c-26 -2 -52 -11 -60 -20 -18 -22 -25 -469 -8 -601 37
-300 144 -624 294 -890 51 -91 155 -231 246 -332 30 -33 31 -33 14 -5 -103
171 -134 226 -184 330 -116 236 -199 487 -262 791 -31 153 -32 168 -33 391 0
177 3 235 13 245 18 18 359 24 461 9 256 -40 528 -109 726 -186 190 -74 337
-148 570 -289 38 -23 -36 43 -156 139 -243 195 -673 363 -1062 415 -72 9 -451
11 -559 3z"/>
<path d="M4735 8163 c-43 -8 -80 -15 -82 -16 -1 -2 -9 -43 -18 -91 -39 -226
-2 -348 150 -501 91 -92 185 -146 324 -189 91 -27 388 -82 398 -73 9 10 -46
307 -73 398 -43 139 -97 233 -189 324 -153 153 -281 190 -510 148z m250 -270
c218 -90 390 -271 465 -488 25 -73 17 -80 -58 -54 -221 76 -399 251 -492 482
-43 108 -39 111 85 60z"/>
<path d="M4960 7834 c0 -28 87 -160 147 -225 96 -101 291 -244 310 -226 18 19
-125 214 -226 310 -81 76 -231 167 -231 141z"/>
<path d="M9610 12667 c-291 -119 -522 -311 -663 -551 -15 -26 -31 -44 -37 -41
-5 3 -12 -7 -15 -22 -3 -15 -19 -84 -35 -153 -16 -69 -32 -143 -35 -165 -16
-101 -30 -95 -45 20 -37 276 -160 522 -332 664 -63 52 -217 136 -237 130 -5
-2 15 -42 46 -89 67 -102 125 -223 147 -305 26 -94 31 -254 13 -360 -35 -197
-132 -415 -298 -665 -135 -203 -151 -244 -168 -406 -17 -169 11 -331 86 -482
l45 -93 -109 -162 c-129 -190 -214 -330 -272 -445 -23 -45 -46 -82 -51 -82 -5
0 -19 -18 -30 -41 -12 -23 -23 -39 -26 -36 -5 4 7 85 30 215 9 46 19 138 22
205 17 317 -73 564 -273 746 -83 77 -159 123 -265 164 -76 28 -93 31 -203 32
-112 0 -124 -2 -177 -28 -110 -54 -178 -160 -186 -290 -4 -71 -2 -82 26 -140
34 -69 67 -105 127 -136 48 -25 123 -28 171 -5 42 20 58 40 23 30 -64 -19
-104 -18 -148 6 -104 56 -121 200 -38 310 68 89 169 112 275 63 74 -34 174
-137 212 -217 l30 -63 -2 -190 c-3 -183 -2 -192 22 -244 13 -30 57 -96 97
-145 79 -98 123 -179 143 -264 15 -64 6 -282 -15 -365 -21 -83 -121 -350 -136
-361 -8 -6 -13 -21 -11 -34 2 -12 -12 -80 -32 -150 -62 -223 -105 -448 -132
-693 -20 -179 -25 -662 -6 -681 18 -18 503 -15 677 5 254 30 475 72 698 133
71 19 138 34 150 32 12 -2 27 3 32 10 12 14 284 118 362 137 84 21 302 30 365
15 85 -20 166 -64 264 -143 49 -40 115 -84 145 -97 52 -24 61 -25 244 -22
l190 2 63 -30 c80 -38 183 -138 217 -212 49 -106 26 -207 -63 -275 -110 -83
-254 -66 -310 38 -24 44 -25 84 -6 148 10 35 -10 19 -30 -23 -23 -48 -20 -123
5 -171 31 -60 67 -93 136 -127 58 -28 69 -30 140 -26 130 8 236 76 290 186 26
53 28 65 28 177 -1 110 -3 127 -32 203 -41 107 -92 189 -166 269 -186 198
-429 286 -747 269 -69 -4 -161 -13 -205 -22 -123 -23 -208 -35 -212 -30 -3 3
13 14 36 26 23 11 41 25 41 30 0 5 37 28 82 51 115 58 255 143 445 272 l162
109 93 -45 c51 -25 121 -53 156 -62 93 -23 232 -34 329 -24 158 16 212 39 409
171 430 289 785 373 1090 258 77 -28 136 -60 234 -124 47 -30 87 -50 89 -45 6
20 -78 174 -130 237 -142 172 -388 295 -664 332 -115 15 -124 31 -25 44 25 4
101 20 170 36 69 16 138 32 153 35 15 3 25 10 22 15 -3 6 15 22 41 37 214 127
384 316 504 560 52 108 98 229 89 238 -3 3 -69 10 -145 16 -268 20 -504 -24
-731 -136 -73 -37 -137 -64 -142 -61 -5 3 -17 -7 -27 -22 -10 -15 -52 -63 -94
-107 -42 -44 -98 -110 -124 -147 -45 -64 -76 -90 -61 -50 3 9 19 63 35 120 75
266 63 498 -37 696 -36 74 -136 206 -155 206 -6 0 -8 -14 -4 -37 3 -21 9 -110
12 -198 5 -128 3 -174 -10 -228 -66 -279 -302 -523 -745 -772 -185 -104 -280
-210 -354 -396 -47 -117 -59 -192 -55 -324 4 -99 8 -128 26 -162 12 -23 22
-44 22 -47 0 -8 -187 -137 -315 -217 -269 -169 -587 -329 -794 -400 -46 -16
-94 -35 -105 -42 -12 -8 -57 -26 -101 -40 -152 -51 -152 -35 1 74 852 599
1361 1376 1454 2216 5 50 10 192 11 314 l1 224 39 33 c29 25 39 41 39 63 0 25
-4 29 -29 29 -22 0 -38 -10 -63 -40 l-34 -39 -135 6 c-139 6 -354 -8 -519 -33
-536 -81 -1047 -341 -1527 -776 -175 -157 -405 -424 -572 -662 -109 -153 -125
-153 -74 -1 14 44 32 89 40 101 7 11 26 59 42 105 91 268 310 676 535 999 79
114 79 114 130 88 33 -18 64 -22 162 -26 147 -5 242 15 379 82 176 85 244 153
359 359 117 209 201 325 329 455 137 140 273 222 424 258 77 18 271 21 368 4
118 -20 121 -12 28 64 -224 180 -507 221 -851 121 -64 -18 -119 -32 -121 -30
-7 8 13 26 67 62 31 21 95 74 142 119 47 44 98 88 112 98 15 10 25 23 22 29
-2 7 24 68 59 137 98 193 140 375 141 605 0 187 -10 275 -32 275 -9 0 -64 -20
-122 -43z m-620 -1189 c0 -77 -106 -373 -201 -563 -121 -241 -258 -426 -473
-637 -129 -128 -166 -156 -166 -126 0 23 82 273 127 388 92 233 186 400 321
570 86 109 360 390 379 390 7 0 13 -10 13 -22z m-618 -305 c0 -219 -38 -415
-118 -603 -53 -125 -172 -323 -197 -328 -15 -3 -17 5 -17 60 0 108 20 339 35
421 23 113 68 235 141 377 76 148 131 227 146 212 6 -6 10 -64 10 -139z m772
-337 c-3 -28 -106 -184 -187 -281 -84 -101 -193 -201 -298 -271 -81 -54 -277
-152 -320 -161 -42 -8 -40 -3 50 131 135 200 248 319 406 427 66 45 327 179
340 175 6 -2 9 -11 9 -20z m1083 -868 c-7 -320 -25 -452 -99 -707 -62 -219
-192 -504 -327 -716 -275 -435 -651 -815 -1131 -1141 -142 -96 -143 -97 -320
-138 -257 -59 -581 -106 -735 -106 -55 0 -75 15 -32 25 12 3 76 17 142 31 169
37 327 94 490 175 184 91 304 177 450 324 183 182 287 349 365 584 50 150 69
262 76 441 l6 145 54 80 c55 82 100 191 111 271 5 41 4 44 -17 44 -73 0 -204
-52 -305 -120 l-70 -48 -145 -6 c-80 -3 -185 -12 -235 -21 -166 -30 -396 -118
-529 -203 -157 -100 -332 -270 -448 -433 -135 -189 -257 -473 -312 -726 -15
-65 -29 -128 -31 -140 -3 -13 -10 -23 -17 -23 -8 0 -9 33 -4 117 19 318 108
782 170 888 13 22 63 96 111 165 620 886 1460 1425 2330 1493 22 2 134 4 249
5 l209 2 -6 -262z m-1052 -797 c7 -12 -15 -185 -26 -202 -11 -19 -30 0 -54 56
-20 45 -29 54 -68 69 -47 18 -75 41 -63 53 6 7 138 29 183 32 12 0 24 -3 28
-8z m1680 -31 c7 -12 -103 -232 -162 -325 -71 -109 -150 -202 -238 -275 -102
-86 -315 -231 -327 -224 -15 9 -1 49 58 168 137 275 319 470 589 630 65 39 71
41 80 26z m-2018 -58 c8 -5 11 -32 10 -77 -1 -39 2 -87 6 -107 9 -44 31 -52
152 -52 l80 -1 3 -35 c5 -53 -16 -254 -38 -351 -102 -467 -394 -823 -866
-1055 -272 -134 -609 -217 -914 -226 l-95 -3 3 105 c10 304 91 627 227 905
172 351 411 601 720 751 165 80 317 120 560 148 59 6 140 6 152 -2z m175 -48
c19 -6 23 -17 33 -86 7 -57 -6 -69 -37 -31 -13 15 -32 36 -44 47 -11 12 -32
31 -47 44 -16 12 -25 27 -22 33 6 9 72 5 117 -7z m2488 -58 c0 -19 -281 -291
-390 -378 -217 -173 -431 -280 -794 -399 -161 -53 -176 -56 -176 -35 0 24 289
306 400 391 239 182 539 331 825 409 55 15 105 29 110 30 14 5 25 -3 25 -18z
m-186 -616 c13 -13 -77 -73 -214 -144 -142 -73 -264 -118 -377 -141 -82 -15
-313 -35 -421 -35 -55 0 -63 2 -60 17 4 21 139 107 263 168 159 78 338 126
535 144 101 9 259 4 274 -9z"/>
<path d="M9230 9886 c-386 -60 -794 -222 -1029 -411 -120 -96 -194 -162 -156
-139 235 142 382 216 569 289 200 77 472 146 727 186 102 15 443 9 461 -9 10
-10 13 -68 13 -245 -1 -223 -2 -238 -33 -391 -56 -267 -128 -498 -223 -710
-46 -100 -139 -277 -179 -336 -9 -14 -27 -43 -39 -65 l-23 -40 32 35 c205 228
342 471 444 789 85 264 110 444 104 775 -3 218 -5 248 -21 263 -16 16 -45 18
-290 20 -184 1 -299 -2 -357 -11z"/>
<path d="M7789 8166 c-81 -23 -152 -69 -234 -151 -92 -91 -146 -185 -189 -324
-27 -91 -82 -388 -73 -398 4 -3 73 6 154 20 302 53 437 110 568 242 156 156
191 285 145 532 l-12 61 -61 12 c-97 18 -245 21 -298 6z m136 -246 c9 -15 -51
-157 -100 -235 -94 -151 -252 -277 -421 -335 -71 -25 -79 -17 -54 55 76 221
247 398 474 491 90 37 92 38 101 24z"/>
<path d="M7756 7803 c-116 -62 -265 -218 -351 -366 -15 -26 -25 -50 -22 -54
19 -18 214 125 310 226 60 65 147 197 147 225 0 11 -15 6 -84 -31z"/>
<path d="M2627 11836 c-20 -8 -44 -20 -53 -27 -28 -23 -54 -87 -54 -134 0 -89
49 -139 136 -139 86 0 144 57 144 144 0 58 -28 103 -80 130 -22 11 -40 25 -40
30 0 13 -7 12 -53 -4z"/>
<path d="M10120 11840 c0 -5 -18 -19 -40 -30 -52 -27 -80 -72 -80 -130 0 -87
58 -144 144 -144 88 0 136 50 136 141 0 83 -52 148 -132 167 -16 4 -28 2 -28
-4z"/>
<path d="M5766 11665 c-111 -28 -192 -80 -306 -194 -115 -116 -181 -206 -258
-351 -102 -193 -151 -363 -171 -597 -22 -244 -11 -476 30 -678 23 -112 59
-238 66 -231 2 2 -5 60 -16 128 -102 616 21 1150 349 1510 185 203 511 278
660 151 45 -39 73 -87 90 -155 16 -63 -1 -122 -50 -170 -32 -32 -44 -38 -80
-38 -37 0 -48 6 -82 40 -43 46 -48 37 -17 -26 27 -56 72 -84 138 -85 79 -2
132 41 185 151 28 59 31 74 31 160 0 78 -4 104 -23 144 -47 103 -142 186 -260
227 -76 27 -209 33 -286 14z"/>
<path d="M6815 11670 c-149 -31 -270 -122 -327 -246 -19 -40 -23 -66 -23 -144
0 -86 3 -101 31 -160 53 -110 106 -153 185 -151 66 1 111 29 138 85 31 63 26
72 -17 26 -34 -34 -45 -40 -82 -40 -36 0 -48 6 -80 38 -44 43 -64 104 -54 160
11 58 50 127 94 165 149 127 475 52 660 -151 327 -359 452 -902 349 -1510 -22
-134 -23 -151 -3 -97 119 320 125 922 13 1243 -44 123 -117 271 -190 382 -87
132 -251 294 -345 343 -115 59 -238 79 -349 57z"/>
<path d="M1038 10259 c-42 -22 -64 -50 -78 -100 -7 -23 -7 -35 0 -37 6 -2 20
-22 31 -43 26 -51 71 -79 129 -79 87 0 144 58 144 144 0 88 -50 136 -141 136
-28 -1 -64 -9 -85 -21z"/>
<path d="M11599 10265 c-42 -23 -63 -64 -63 -121 0 -86 57 -144 144 -144 58 0
103 28 129 79 11 21 25 41 31 43 12 4 -2 60 -25 94 -36 55 -155 82 -216 49z"/>
<path d="M5980 9469 c-239 -24 -299 -45 -367 -124 -42 -48 -88 -143 -103 -210
-12 -53 -22 -325 -13 -363 5 -21 8 -18 33 26 52 91 107 126 275 177 97 29 141
53 194 106 50 51 70 106 86 236 19 152 19 163 -2 162 -10 -1 -56 -6 -103 -10z
m-50 -117 c0 -5 -38 -35 -85 -66 -47 -31 -103 -73 -125 -92 -55 -50 -125 -158
-156 -240 -34 -92 -48 -104 -41 -35 4 29 20 83 37 120 59 125 145 213 282 287
64 34 88 41 88 26z"/>
<path d="M6700 9458 c0 -67 31 -263 48 -300 39 -87 116 -144 247 -183 168 -51
223 -86 275 -177 25 -44 28 -47 33 -26 9 43 0 305 -13 359 -29 120 -91 221
-168 270 -61 38 -98 48 -235 59 -61 6 -129 13 -149 16 -35 5 -38 4 -38 -18z
m248 -127 c177 -89 312 -258 329 -412 7 -69 -7 -57 -41 35 -31 82 -101 190
-156 240 -22 19 -78 61 -125 92 -79 53 -100 74 -75 74 6 0 36 -13 68 -29z"/>
<path d="M68 8767 c-32 -26 -68 -89 -68 -118 0 -11 10 -42 21 -70 29 -68 72
-93 145 -87 47 4 61 10 92 41 31 32 36 43 40 95 4 57 3 62 -30 97 -31 34 -41
39 -92 43 -31 2 -59 8 -62 13 -8 14 -17 11 -46 -14z"/>
<path d="M12686 8781 c-3 -5 -31 -11 -62 -13 -51 -4 -61 -9 -92 -43 -33 -35
-34 -40 -30 -97 4 -52 9 -63 40 -95 30 -30 45 -37 89 -41 72 -7 111 16 144 81
14 28 25 61 25 74 0 30 -35 93 -68 120 -29 25 -38 28 -46 14z"/>
<path d="M6138 8176 c155 -239 219 -316 262 -316 43 0 107 77 262 316 5 8 -67
11 -262 11 -195 0 -267 -3 -262 -11z m322 -129 c0 -7 -13 -28 -30 -47 l-30
-35 -30 35 c-45 51 -40 60 30 60 42 0 60 -4 60 -13z"/>
<path d="M2260 7769 c-271 -25 -501 -107 -731 -260 -131 -88 -294 -252 -342
-345 -67 -131 -81 -244 -47 -377 34 -135 118 -244 228 -295 49 -23 70 -27 152
-27 82 0 103 4 153 27 114 54 157 104 157 186 0 69 -26 113 -84 141 -63 31
-72 26 -26 -17 34 -34 40 -45 40 -82 0 -36 -6 -48 -38 -80 -48 -49 -107 -66
-170 -50 -68 17 -116 45 -155 90 -128 149 -52 477 154 663 356 324 901 449
1507 346 126 -21 144 -23 122 -10 -45 26 -274 75 -422 91 -113 12 -361 11
-498 -1z"/>
<path d="M10005 7765 c-141 -17 -344 -62 -385 -86 -22 -13 -4 -11 122 10 605
103 1151 -22 1507 -346 165 -149 253 -400 202 -575 -16 -57 -69 -122 -121
-148 -104 -53 -186 -47 -252 20 -32 32 -38 44 -38 80 0 37 6 48 40 82 46 43
37 48 -26 17 -58 -28 -84 -72 -84 -141 0 -82 43 -132 157 -186 50 -23 71 -27
153 -27 83 0 103 4 153 27 111 52 199 169 232 310 29 122 12 238 -52 362 -44
86 -207 253 -323 332 -167 115 -384 210 -555 244 -194 39 -525 51 -730 25z"/>
<path d="M6368 7753 c-8 -10 -28 -42 -43 -70 -15 -29 -36 -55 -46 -58 -29 -10
-23 -21 20 -33 71 -22 241 -8 241 19 0 4 -8 10 -19 14 -10 3 -31 29 -46 58
-35 66 -54 87 -75 87 -9 0 -24 -8 -32 -17z"/>
<path d="M5843 7371 c-52 -13 -99 -56 -118 -106 -17 -43 -17 -47 0 -91 21 -57
84 -106 129 -102 32 3 49 28 19 28 -46 0 -60 71 -20 108 35 32 69 36 115 13
86 -44 139 -148 129 -251 -12 -108 -30 -117 -76 -35 -33 59 -60 81 -108 91
-28 5 -38 0 -82 -41 -28 -27 -54 -58 -57 -70 -11 -43 21 -93 85 -133 87 -53
81 -68 -34 -78 -102 -9 -190 36 -241 121 -29 51 -27 84 8 123 37 39 108 25
108 -21 0 -30 25 -13 28 19 4 45 -45 108 -103 129 -45 18 -48 18 -93 -1 -31
-13 -56 -33 -76 -62 -26 -37 -30 -51 -30 -110 0 -158 110 -281 290 -323 149
-35 433 12 462 76 18 38 41 135 52 217 19 136 -16 287 -88 383 -64 85 -205
139 -299 116z"/>
<path d="M6830 7367 c-149 -42 -234 -155 -260 -347 -14 -98 11 -276 52 -365
29 -64 313 -111 462 -76 61 15 144 55 190 93 19 16 49 58 67 93 26 54 32 78
33 135 0 62 -3 74 -30 112 -20 29 -45 49 -76 62 -45 19 -48 19 -93 1 -58 -21
-107 -84 -103 -129 3 -32 28 -49 28 -19 0 46 71 60 108 21 35 -39 37 -72 8
-123 -51 -85 -139 -130 -241 -121 -115 10 -121 25 -34 78 64 40 96 90 85 133
-8 32 -101 115 -128 115 -39 0 -84 -36 -119 -94 -49 -82 -64 -75 -76 34 -10
103 43 207 129 251 46 23 80 19 116 -13 39 -37 25 -108 -21 -108 -30 0 -13
-25 19 -28 45 -4 108 45 129 103 18 45 18 48 -1 93 -36 87 -139 128 -244 99z"/>
<path d="M3740 7300 c-213 -19 -363 -139 -388 -308 -14 -93 -31 -286 -26 -291
10 -11 276 29 316 47 87 39 144 116 183 247 51 168 86 223 177 274 45 26 47
29 26 35 -29 7 -178 5 -288 -4z m185 -29 c-6 -5 -41 -21 -79 -35 -82 -31 -190
-101 -240 -156 -19 -22 -61 -78 -92 -125 -53 -79 -74 -100 -74 -75 0 21 59
127 104 186 68 91 174 166 281 200 48 15 113 18 100 5z"/>
<path d="M8766 7303 c-14 -4 -7 -11 31 -33 92 -52 127 -107 178 -275 39 -131
96 -208 183 -247 40 -18 306 -58 316 -47 5 5 -12 198 -26 291 -26 175 -173
288 -402 308 -106 10 -248 11 -280 3z m273 -63 c89 -42 162 -100 217 -174 45
-59 104 -165 104 -186 0 -25 -21 -4 -74 75 -31 47 -73 103 -92 125 -50 55
-158 125 -240 156 -92 34 -104 48 -35 41 29 -4 83 -20 120 -37z"/>
<path d="M6342 6827 c-28 -89 -63 -186 -77 -215 -30 -64 -55 -78 -292 -154
-90 -29 -163 -55 -163 -58 0 -3 73 -29 163 -58 89 -28 186 -63 215 -77 64 -30
78 -55 154 -292 29 -90 55 -163 58 -163 3 0 29 73 58 163 28 89 63 186 77 215
30 64 55 78 292 154 90 29 163 55 163 58 0 3 -73 29 -163 58 -237 76 -262 90
-292 154 -14 29 -49 126 -77 215 -29 90 -55 163 -58 163 -3 0 -29 -73 -58
-163z m89 33 c20 -70 18 -86 -11 -67 -16 9 -24 9 -40 0 -10 -7 -21 -9 -24 -4
-5 7 10 72 30 129 9 28 28 4 45 -58z m10 -117 c18 -21 49 -73 69 -116 l37 -78
89 -44 c49 -24 102 -57 118 -74 l30 -31 -30 -31 c-16 -17 -69 -50 -117 -74
l-89 -43 -43 -89 c-24 -48 -57 -101 -74 -117 l-31 -30 -31 30 c-17 16 -50 69
-74 117 l-43 89 -89 43 c-48 24 -101 57 -117 74 l-30 31 30 31 c16 17 69 50
118 74 l89 44 37 78 c34 73 92 153 110 153 4 0 23 -17 41 -37z m-428 -299 c3
-3 1 -15 -6 -25 -9 -15 -9 -23 0 -39 7 -10 9 -21 4 -24 -14 -9 -136 30 -136
44 0 8 26 21 60 31 72 21 70 21 78 13z m870 -19 c23 -7 42 -18 42 -25 0 -14
-122 -53 -136 -44 -5 3 -3 14 4 24 9 16 9 24 0 39 -21 34 -8 35 90 6z m-463
-418 c10 7 21 9 24 4 9 -14 -30 -136 -44 -136 -14 0 -53 122 -44 136 3 5 14 3
24 -4 16 -9 24 -9 40 0z"/>
<path d="M4613 6400 c0 -195 3 -267 11 -262 239 155 316 219 316 262 0 43 -77
107 -316 262 -8 5 -11 -67 -11 -262z m187 30 l35 -30 -35 -30 c-51 -45 -60
-40 -60 30 0 70 9 75 60 30z"/>
<path d="M8059 6586 c-123 -82 -199 -153 -199 -186 0 -43 77 -107 316 -262 8
-5 11 67 11 262 0 149 0 270 -1 270 -1 -1 -58 -39 -127 -84z m1 -186 c0 -70
-9 -75 -60 -30 l-35 30 35 30 c51 45 60 40 60 -30z"/>
<path d="M5176 6522 c-4 -10 -34 -34 -68 -53 -34 -19 -66 -42 -72 -51 -16 -27
1 -48 72 -87 34 -19 64 -43 68 -53 16 -51 44 26 44 122 0 96 -28 173 -44 122z"/>
<path d="M7592 6501 c-22 -71 -8 -241 19 -241 4 0 10 8 13 18 4 10 34 34 68
53 34 19 66 42 72 52 16 26 -1 47 -72 86 -34 19 -64 43 -68 53 -9 28 -20 21
-32 -21z"/>
<path d="M1387 6316 c-152 -64 -250 -212 -264 -401 -7 -89 15 -184 64 -279 44
-86 207 -253 323 -332 167 -115 384 -210 555 -244 339 -69 841 -43 1090 55
l40 15 -40 -5 c-22 -3 -83 -12 -135 -20 -596 -91 -1115 33 -1469 352 -165 148
-253 400 -202 575 16 57 69 122 121 148 104 53 186 47 252 -20 32 -32 38 -44
38 -80 0 -37 -6 -48 -40 -82 -46 -43 -37 -48 26 -17 58 28 84 72 84 141 0 82
-43 133 -157 185 -85 39 -206 43 -286 9z"/>
<path d="M11175 6326 c-82 -26 -143 -65 -182 -118 -17 -24 -23 -45 -23 -86 0
-69 26 -113 84 -141 63 -31 72 -26 26 17 -34 34 -40 45 -40 82 0 36 6 48 38
80 48 49 107 66 170 50 68 -17 116 -45 155 -90 128 -149 51 -478 -154 -663
-353 -319 -874 -443 -1469 -352 -52 8 -113 17 -135 20 l-40 5 40 -15 c249 -98
751 -124 1090 -55 171 34 388 129 555 244 116 79 279 246 323 332 92 179 85
374 -20 532 -93 139 -268 205 -418 158z"/>
<path d="M2278 6242 c-60 -22 -128 -70 -162 -115 -101 -132 -84 -375 40 -578
101 -167 300 -315 488 -363 157 -41 378 -45 561 -10 123 23 208 35 212 30 3
-3 -13 -14 -36 -26 -23 -11 -41 -25 -41 -30 0 -5 -37 -28 -82 -51 -115 -58
-255 -143 -445 -272 l-162 -109 -93 45 c-151 75 -313 103 -482 86 -161 -16
-208 -36 -400 -163 -261 -174 -497 -278 -695 -307 -100 -14 -251 -7 -336 16
-82 23 -203 81 -305 148 -47 31 -87 51 -89 46 -6 -20 78 -174 130 -237 142
-172 388 -295 664 -332 115 -15 121 -29 20 -45 -22 -3 -96 -19 -165 -35 -69
-16 -138 -32 -153 -35 -15 -3 -25 -10 -22 -15 3 -6 -15 -22 -41 -37 -214 -127
-390 -324 -508 -567 -49 -103 -93 -222 -85 -231 3 -3 70 -10 149 -16 278 -21
522 27 749 147 57 30 110 53 117 50 7 -3 20 7 30 22 10 15 52 63 94 107 42 44
98 110 124 148 45 63 76 89 61 50 -3 -10 -19 -64 -35 -121 -94 -333 -51 -615
126 -834 76 -94 84 -91 64 27 -16 95 -14 291 4 368 35 150 118 287 258 424
130 128 240 208 453 328 154 87 214 133 272 209 62 82 128 222 154 325 29 115
24 304 -9 368 -12 23 -22 44 -22 47 0 8 218 158 330 227 265 165 579 322 779
390 46 16 94 35 105 42 12 8 57 26 101 40 152 51 152 35 0 -72 -815 -576
-1316 -1308 -1441 -2106 -18 -119 -34 -444 -26 -562 l5 -84 -42 -35 c-31 -27
-41 -43 -41 -65 0 -25 4 -29 29 -29 21 0 38 10 61 37 l33 37 218 2 c335 4 556
36 806 115 664 212 1251 670 1732 1353 109 153 125 153 74 1 -14 -44 -32 -89
-40 -101 -7 -11 -26 -59 -42 -105 -91 -268 -310 -676 -535 -999 -79 -114 -79
-114 -130 -88 -33 18 -64 22 -162 26 -147 5 -242 -15 -379 -82 -176 -85 -244
-153 -360 -361 -102 -183 -200 -319 -310 -434 -114 -118 -191 -177 -298 -226
-125 -58 -188 -68 -372 -61 -88 3 -177 9 -197 12 -24 4 -38 2 -38 -4 0 -19
132 -119 206 -155 197 -99 434 -112 692 -38 53 15 107 31 120 35 42 14 22 -12
-45 -60 -38 -26 -104 -82 -148 -124 -44 -42 -92 -84 -107 -94 -15 -10 -25 -23
-22 -30 3 -7 -20 -60 -50 -117 -120 -227 -168 -476 -147 -751 6 -78 13 -144
16 -147 14 -13 224 75 339 143 201 119 335 251 460 454 15 23 31 40 36 37 5
-3 12 7 15 22 3 15 19 84 35 153 16 69 32 143 35 165 16 101 30 95 45 -20 37
-276 160 -522 332 -664 63 -52 217 -136 237 -130 5 2 -15 42 -46 89 -66 101
-125 222 -148 305 -25 92 -30 253 -12 360 35 197 133 416 297 663 136 205 152
245 169 408 17 169 -11 331 -86 482 l-45 93 109 162 c129 190 214 330 272 445
23 45 46 82 51 82 5 0 19 18 30 41 12 23 23 39 25 37 5 -4 -10 -111 -29 -213
-9 -44 -18 -136 -22 -205 -17 -320 73 -566 273 -749 83 -77 158 -123 265 -164
76 -29 93 -31 203 -32 111 0 124 2 177 28 109 54 178 161 186 290 4 71 2 82
-26 140 -34 69 -67 105 -127 136 -48 25 -123 28 -171 5 -42 -20 -58 -40 -23
-30 64 19 104 18 148 -6 104 -56 121 -200 38 -310 -68 -89 -169 -112 -275 -63
-74 34 -174 137 -212 217 l-30 63 2 190 c3 183 2 192 -22 244 -13 30 -57 96
-97 145 -79 98 -123 179 -143 264 -15 64 -6 282 15 365 18 73 119 345 133 359
7 7 12 24 12 38 0 15 14 75 30 135 63 221 107 454 137 710 20 175 24 658 5
677 -7 7 -100 11 -274 11 -213 0 -298 -4 -447 -22 -210 -25 -462 -74 -652
-126 -72 -20 -140 -35 -152 -33 -12 2 -27 -3 -32 -10 -12 -14 -284 -118 -362
-137 -84 -21 -302 -30 -365 -15 -85 20 -166 64 -264 143 -49 40 -115 84 -145
97 -52 24 -61 25 -244 22 l-190 -2 -63 30 c-80 38 -183 138 -217 212 -49 106
-26 207 63 275 110 83 254 66 310 -38 24 -44 25 -84 6 -148 -10 -35 10 -19 30
23 24 50 20 118 -9 175 -63 125 -227 184 -367 133z m2962 -612 c0 -5 -10 -12
-22 -15 -13 -2 -76 -16 -141 -31 -252 -54 -539 -178 -726 -312 -163 -116 -333
-291 -433 -448 -85 -133 -173 -363 -203 -529 -9 -49 -18 -155 -21 -235 l-6
-145 -54 -80 c-56 -83 -99 -189 -110 -269 -6 -43 -5 -46 16 -46 73 0 204 52
305 120 l70 48 145 6 c179 7 291 26 441 76 217 72 393 178 558 335 259 247
440 582 525 970 14 66 28 130 31 143 3 12 10 22 17 22 26 0 -13 -372 -67 -645
-57 -283 -67 -311 -159 -449 -303 -454 -664 -823 -1066 -1091 -420 -280 -841
-436 -1285 -475 -60 -5 -195 -10 -299 -10 l-189 0 6 263 c6 263 17 366 57 545
134 602 497 1178 1055 1674 164 146 414 334 553 415 91 54 479 132 822 166 79
8 180 6 180 -3z m382 -110 c-10 -301 -92 -631 -227 -905 -233 -472 -586 -762
-1054 -865 -103 -23 -328 -45 -364 -36 -26 6 -26 8 -24 79 1 39 -2 89 -6 109
-9 44 -31 52 -152 52 l-80 1 2 115 c9 413 201 814 516 1079 275 230 633 386
1042 451 80 13 263 28 315 26 l35 -1 -3 -105z m-3064 -777 c-4 -26 -241 -165
-351 -207 -110 -43 -253 -80 -368 -97 -104 -14 -337 -15 -351 -1 -26 26 264
187 443 246 149 50 301 71 542 75 79 1 88 -1 85 -16z m102 -107 c0 -19 -260
-279 -355 -355 -260 -208 -578 -368 -907 -456 -129 -34 -128 -20 8 117 343
347 581 494 1057 653 173 58 197 63 197 41z m15 -184 c-10 -41 -113 -241 -160
-312 -119 -179 -298 -343 -508 -465 -76 -44 -77 -25 -6 116 148 298 261 425
543 618 65 44 123 78 128 75 5 -4 7 -18 3 -32z m1115 -561 c0 -9 56 -68 94
-99 16 -14 25 -27 19 -33 -12 -12 -112 1 -127 17 -14 13 -29 111 -20 125 5 9
34 1 34 -10z m-88 -112 c23 -48 32 -58 71 -73 53 -20 78 -43 59 -55 -22 -13
-195 -32 -204 -23 -9 9 2 116 18 190 7 35 26 22 56 -39z m785 -1114 c-13 -33
-152 -230 -220 -312 -118 -142 -250 -239 -476 -352 -84 -43 -127 -59 -134 -52
-23 23 138 256 268 386 132 133 263 223 450 308 86 40 121 46 112 22z m163
-19 c0 -8 -22 -81 -49 -162 -119 -365 -226 -577 -399 -794 -88 -111 -359 -390
-379 -390 -19 0 -16 34 13 139 48 176 141 396 239 566 114 198 231 345 424
533 120 117 151 139 151 108z m110 -148 c0 -108 -20 -340 -35 -421 -23 -113
-68 -235 -141 -377 -76 -148 -131 -227 -146 -212 -15 15 -13 257 1 357 29 194
97 393 183 540 119 201 138 217 138 113z"/>
<path d="M3374 4660 c-220 -267 -376 -623 -450 -1025 -16 -83 -19 -150 -19
-397 0 -269 2 -299 17 -315 16 -15 47 -18 263 -21 331 -6 511 18 776 104 318
102 561 239 789 444 l35 32 -40 -23 c-22 -12 -51 -30 -65 -39 -59 -40 -236
-133 -336 -179 -261 -117 -578 -207 -884 -251 -112 -16 -444 -10 -462 8 -10
10 -13 69 -13 245 1 223 2 238 33 391 90 432 237 802 446 1119 38 57 5 23 -90
-93z"/>
<path d="M5330 5484 c-280 -51 -417 -111 -545 -239 -153 -153 -191 -281 -149
-507 l16 -86 61 -12 c247 -46 376 -11 532 145 130 130 189 266 240 555 14 79
25 150 25 157 0 17 -20 16 -180 -13z m140 -29 c0 -1 -9 -28 -20 -60 -61 -179
-193 -338 -358 -434 -91 -52 -202 -95 -214 -83 -12 12 40 144 88 224 96 158
246 282 418 344 50 18 86 22 86 9z"/>
<path d="M5346 5384 c-149 -89 -289 -227 -350 -344 -21 -39 -36 -74 -33 -77 3
-3 38 12 77 33 117 61 255 201 344 350 53 88 50 91 -38 38z"/>
<path d="M10285 6231 c-68 -34 -103 -67 -134 -126 -25 -48 -28 -123 -5 -171
20 -42 40 -58 30 -23 -19 64 -18 104 6 148 56 104 200 121 310 38 89 -68 112
-169 63 -275 -34 -74 -137 -174 -217 -212 l-63 -30 -190 2 c-183 3 -192 2
-244 -22 -30 -13 -96 -57 -145 -97 -98 -79 -179 -123 -264 -143 -63 -15 -281
-6 -365 15 -78 19 -350 123 -362 137 -5 7 -20 12 -32 10 -12 -2 -80 13 -152
33 -190 52 -442 101 -652 126 -149 18 -234 22 -447 22 -174 0 -267 -4 -274
-11 -19 -19 -14 -502 6 -681 27 -245 70 -470 132 -693 20 -70 34 -138 32 -150
-2 -13 3 -28 11 -34 15 -11 115 -278 136 -361 21 -83 30 -301 15 -365 -20 -85
-64 -166 -143 -264 -40 -49 -84 -115 -97 -145 -24 -52 -25 -61 -22 -244 l2
-190 -30 -63 c-38 -80 -138 -183 -212 -217 -106 -49 -207 -26 -275 63 -83 110
-66 254 38 310 44 24 84 25 148 6 35 -10 19 10 -23 30 -48 23 -123 20 -171 -5
-60 -31 -93 -67 -127 -136 -28 -58 -30 -69 -26 -140 8 -130 76 -236 186 -290
53 -26 65 -28 177 -28 110 1 127 3 203 32 107 41 182 87 265 164 212 193 299
452 269 801 -7 79 -18 170 -26 203 -8 33 -17 87 -20 120 l-6 60 25 -47 c14
-27 30 -48 35 -48 5 0 28 -37 51 -82 58 -115 143 -255 272 -445 l109 -162 -45
-93 c-75 -151 -103 -313 -86 -482 16 -162 33 -203 169 -408 247 -372 343 -677
300 -947 -21 -124 -68 -235 -164 -381 -30 -47 -50 -87 -45 -89 20 -6 174 78
237 130 172 142 295 388 332 664 15 115 29 121 45 20 3 -22 19 -96 35 -165 16
-69 32 -138 35 -153 3 -15 10 -25 15 -22 6 3 22 -15 37 -41 127 -214 316 -384
560 -504 108 -52 229 -98 238 -89 3 3 10 69 16 147 21 275 -27 524 -147 751
-30 57 -53 110 -50 117 3 7 -7 20 -22 30 -15 10 -63 52 -107 94 -44 42 -110
98 -147 124 -68 48 -88 74 -45 60 12 -4 66 -20 119 -35 258 -74 495 -61 692
38 74 36 206 136 206 155 0 6 -14 8 -37 4 -21 -3 -110 -9 -198 -12 -184 -7
-247 3 -372 61 -212 98 -419 323 -608 660 -116 208 -184 276 -360 361 -137 67
-232 87 -379 82 -98 -4 -129 -8 -162 -26 -51 -26 -51 -26 -130 88 -225 323
-444 731 -535 999 -16 46 -35 94 -42 105 -8 12 -26 57 -40 101 -51 152 -35
152 74 -1 599 -851 1380 -1363 2217 -1454 57 -6 201 -12 321 -14 l218 -2 33
-37 c23 -27 40 -37 61 -37 25 0 29 4 29 29 0 22 -10 38 -39 63 l-39 33 -1 223
c-1 337 -32 547 -118 817 -209 651 -669 1237 -1347 1714 -153 109 -153 125 -1
74 44 -14 89 -32 101 -40 11 -7 59 -26 105 -42 207 -71 525 -231 794 -400 128
-80 315 -209 315 -217 0 -3 -10 -24 -22 -47 -18 -34 -22 -63 -26 -162 -4 -132
8 -207 55 -324 74 -186 169 -292 354 -396 204 -114 353 -219 467 -329 119
-115 177 -192 227 -299 58 -125 68 -188 61 -372 -3 -88 -9 -177 -12 -197 -4
-24 -2 -38 4 -38 19 0 119 132 155 206 100 198 112 430 37 696 -16 57 -32 111
-35 121 -15 39 16 13 61 -50 26 -38 82 -104 124 -148 42 -44 84 -92 94 -107
10 -15 23 -25 30 -22 7 3 60 -20 117 -50 227 -120 471 -168 749 -147 79 6 146
13 149 16 9 9 -37 130 -89 238 -120 244 -290 433 -504 560 -26 15 -44 31 -41
37 3 5 -7 12 -22 15 -15 3 -84 19 -153 35 -69 16 -143 32 -165 35 -101 16 -95
30 20 45 276 37 522 160 664 332 52 63 136 217 130 237 -2 5 -42 -15 -89 -45
-47 -31 -106 -67 -132 -80 -343 -175 -710 -107 -1204 222 -192 127 -239 146
-400 163 -169 17 -331 -11 -482 -86 l-93 -45 -162 109 c-190 129 -330 214
-445 272 -45 23 -82 46 -82 51 0 5 -18 19 -41 30 -23 12 -39 23 -36 26 4 5 89
-7 212 -30 44 -9 136 -18 205 -22 318 -17 561 71 747 269 74 80 125 162 166
269 29 76 31 93 32 203 0 112 -2 124 -28 177 -55 111 -160 179 -292 185 -74 4
-85 2 -140 -26z m-2374 -617 c260 -33 580 -105 651 -147 56 -33 274 -186 363
-254 267 -207 570 -519 757 -779 198 -277 365 -610 446 -895 74 -256 92 -387
99 -708 l6 -264 -264 6 c-321 7 -452 25 -708 99 -219 62 -504 192 -716 327
-407 257 -769 605 -1075 1037 -165 232 -177 260 -240 579 -50 255 -87 625 -62
625 7 0 14 -10 17 -22 2 -13 16 -76 31 -141 84 -388 267 -725 525 -972 165
-157 341 -263 558 -335 150 -50 262 -69 441 -76 l145 -6 70 -48 c101 -68 232
-120 305 -120 21 0 22 3 16 46 -11 80 -54 186 -110 269 l-54 80 -6 145 c-3 80
-12 186 -21 235 -30 166 -118 396 -203 529 -100 157 -270 332 -433 448 -187
134 -474 258 -726 312 -65 15 -128 29 -140 31 -13 3 -23 10 -23 17 0 14 171 5
351 -18z m-429 -9 c415 -54 798 -216 1085 -456 244 -206 413 -488 483 -808 22
-97 43 -298 38 -351 l-3 -35 -80 -1 c-121 0 -143 -8 -152 -52 -4 -20 -7 -70
-6 -109 2 -71 2 -73 -24 -79 -36 -9 -261 13 -364 36 -468 103 -821 393 -1054
865 -130 264 -203 541 -225 858 -6 76 -8 143 -4 148 7 11 156 3 306 -16z
m3023 -855 c247 -18 378 -54 595 -166 148 -76 227 -131 212 -146 -14 -14 -247
-13 -351 1 -215 31 -402 97 -588 209 -152 92 -165 112 -71 112 35 0 126 -5
203 -10z m-171 -155 c466 -154 685 -286 1019 -614 140 -138 170 -180 122 -173
-52 8 -222 59 -325 99 -335 128 -601 303 -862 566 -140 141 -167 177 -133 177
8 0 89 -25 179 -55z m-54 -203 c258 -176 375 -311 519 -601 43 -84 59 -127 52
-134 -12 -12 -120 49 -231 132 -90 67 -217 192 -284 280 -92 119 -224 375
-212 408 7 18 3 20 156 -85z m-1237 -551 c-3 -29 -12 -58 -19 -65 -15 -16
-115 -29 -127 -17 -6 6 2 19 19 33 35 29 63 57 92 92 31 37 43 23 35 -43z
m111 -23 c16 -74 27 -181 18 -190 -9 -9 -182 10 -204 23 -19 12 6 35 59 55 38
15 48 25 65 63 31 73 53 91 62 49z m-672 -1203 c61 -31 141 -75 177 -99 181
-121 344 -299 466 -509 44 -76 25 -77 -116 -6 -226 113 -358 210 -476 352 -70
84 -207 279 -220 314 -10 27 45 10 169 -52z m-213 -45 c158 -146 310 -328 421
-505 104 -167 222 -436 274 -626 29 -105 32 -139 13 -139 -19 0 -293 281 -379
390 -172 217 -276 422 -393 776 -57 171 -62 194 -44 194 6 0 55 -40 108 -90z
m-127 -125 c115 -187 186 -382 218 -600 15 -100 17 -342 2 -357 -15 -15 -70
64 -146 212 -73 142 -118 264 -141 377 -15 82 -35 313 -35 421 0 55 2 63 17
60 10 -2 48 -52 85 -113z"/>
<path d="M9326 4771 c4 -8 36 -62 72 -120 179 -297 302 -623 384 -1017 31
-153 32 -168 33 -391 0 -176 -3 -235 -13 -245 -18 -18 -350 -24 -462 -8 -303
43 -620 133 -881 250 -91 40 -278 141 -409 221 l-35 21 35 -32 c226 -204 471
-342 789 -444 265 -86 445 -110 776 -104 215 3 247 6 262 21 16 15 18 47 21
263 3 153 0 282 -8 342 -48 395 -220 830 -430 1090 -90 111 -145 174 -134 153z"/>
<path d="M7290 5497 c0 -7 11 -78 25 -157 51 -289 110 -425 240 -555 156 -156
285 -191 532 -145 l61 12 12 61 c46 247 11 376 -145 532 -130 131 -265 189
-560 240 -162 29 -165 29 -165 12z m239 -103 c123 -67 231 -171 305 -292 48
-80 100 -212 88 -224 -12 -12 -123 31 -214 83 -126 73 -232 182 -302 310 -49
89 -80 180 -65 190 16 10 109 -23 188 -67z"/>
<path d="M7380 5413 c0 -14 70 -124 115 -183 68 -88 186 -193 265 -234 39 -21
74 -36 77 -33 3 3 -12 38 -33 77 -61 117 -201 255 -350 344 -60 37 -74 42 -74
29z"/>
<path d="M5765 6229 c-150 -22 -251 -86 -305 -193 -29 -58 -34 -79 -34 -137 0
-60 4 -74 30 -111 20 -29 45 -49 76 -62 45 -19 48 -19 93 -1 58 21 107 84 103
129 -3 32 -28 49 -28 19 0 -46 -71 -60 -108 -20 -32 35 -36 69 -13 115 44 86
148 139 251 129 110 -12 115 -26 29 -79 -64 -40 -96 -90 -85 -133 3 -12 29
-43 57 -70 44 -41 54 -46 82 -41 48 10 75 32 108 91 47 83 66 73 75 -40 9
-102 -36 -190 -121 -241 -51 -29 -84 -27 -122 8 -40 37 -26 108 20 108 30 0
13 25 -19 28 -45 4 -108 -45 -129 -103 -18 -45 -18 -48 1 -93 13 -31 33 -56
62 -76 37 -26 51 -30 111 -30 57 0 79 5 134 32 130 64 198 198 200 392 1 85
-22 210 -50 282 -12 29 -24 40 -56 52 -109 41 -264 60 -362 45z"/>
<path d="M6885 6234 c-61 -9 -181 -37 -216 -51 -40 -15 -51 -34 -73 -121 -42
-159 -40 -292 4 -412 51 -138 166 -224 300 -224 61 0 75 4 112 30 29 20 49 45
62 76 19 45 19 48 1 93 -21 58 -84 107 -129 103 -32 -3 -49 -28 -19 -28 46 0
60 -71 21 -108 -36 -32 -70 -36 -116 -13 -86 44 -139 148 -129 251 12 109 27
116 76 34 35 -58 80 -94 119 -94 27 0 120 83 128 115 11 43 -21 93 -85 133
-86 53 -81 67 29 79 103 10 207 -43 251 -129 23 -46 19 -80 -13 -115 -37 -40
-108 -26 -108 20 0 30 -25 13 -28 -19 -4 -45 45 -108 103 -129 45 -18 48 -18
93 1 31 13 56 33 76 62 26 37 30 51 30 110 0 157 -112 283 -285 321 -57 12
-165 20 -204 15z"/>
<path d="M3324 6063 c3 -21 10 -89 16 -150 5 -62 14 -131 20 -152 26 -97 130
-195 250 -234 74 -25 235 -39 348 -31 l93 6 -49 28 c-91 53 -123 103 -181 285
-41 132 -97 203 -186 241 -34 14 -234 44 -293 44 -22 0 -23 -3 -18 -37z m190
-218 c31 -47 73 -103 92 -125 50 -55 158 -125 240 -156 92 -34 104 -48 35 -41
-112 13 -256 103 -337 211 -45 59 -104 165 -104 186 0 25 21 4 74 -75z"/>
<path d="M9304 6085 c-111 -14 -160 -31 -207 -71 -57 -48 -87 -98 -118 -199
-58 -182 -90 -232 -181 -285 l-49 -28 93 -6 c113 -8 274 6 348 31 120 39 224
137 250 234 6 21 15 90 20 152 6 61 13 129 16 150 l6 37 -39 -1 c-21 -1 -83
-7 -139 -14z m56 -165 c0 -21 -59 -127 -104 -186 -81 -108 -225 -198 -337
-211 -69 -7 -57 7 35 41 82 31 190 101 240 156 19 22 61 78 92 125 53 79 74
100 74 75z"/>
<path d="M6293 5208 c-37 -12 -42 -24 -15 -32 10 -4 34 -34 53 -68 39 -71 60
-88 87 -72 9 6 32 38 51 72 19 34 43 64 53 68 28 9 21 20 -21 32 -46 14 -164
14 -208 0z"/>
<path d="M6340 4903 c-36 -31 -83 -97 -202 -279 -5 -8 69 -11 262 -11 193 0
267 3 262 11 -157 241 -219 316 -262 316 -9 0 -36 -17 -60 -37z m94 -106 c38
-50 34 -57 -34 -57 -39 0 -60 4 -60 12 0 15 48 78 60 78 5 0 20 -15 34 -33z"/>
<path d="M74 4290 c-32 -21 -74 -100 -74 -138 0 -55 85 -156 113 -134 7 5 36
12 66 14 47 5 59 10 89 43 32 35 34 40 30 97 -4 52 -9 63 -41 95 -32 32 -43
37 -94 40 -46 3 -64 0 -89 -17z"/>
<path d="M12585 4300 c-11 -4 -33 -22 -49 -39 -24 -25 -30 -42 -34 -90 -4 -56
-2 -61 30 -96 30 -33 42 -38 89 -43 30 -2 59 -9 66 -14 28 -23 113 79 113 136
0 37 -48 120 -79 139 -30 18 -101 22 -136 7z"/>
<path d="M5497 4028 c-9 -37 1 -308 13 -363 15 -67 61 -161 103 -210 49 -57
120 -93 208 -105 117 -16 273 -30 277 -25 8 8 -19 228 -33 281 -29 104 -106
170 -250 215 -182 58 -232 90 -285 181 -25 45 -28 47 -33 26z m67 -182 c31
-82 101 -190 156 -240 22 -19 78 -61 125 -92 79 -53 100 -74 75 -74 -21 0
-127 59 -186 104 -108 81 -198 225 -211 337 -7 69 7 57 41 -35z"/>
<path d="M7278 4017 c-22 -45 -71 -101 -112 -127 -18 -11 -88 -37 -154 -59
-172 -56 -244 -113 -276 -223 -14 -45 -42 -276 -34 -283 4 -5 161 10 277 25
129 18 212 80 270 205 43 91 52 146 55 310 3 174 -2 203 -26 152z m-2 -151
c-16 -104 -108 -246 -210 -322 -59 -45 -165 -104 -186 -104 -25 0 -4 21 75 74
47 31 103 73 125 92 55 49 125 158 156 240 14 37 28 73 32 78 10 17 14 -13 8
-58z"/>
<path d="M5101 3123 c-73 -251 -97 -539 -70 -846 25 -292 101 -507 267 -757
80 -122 248 -286 338 -333 131 -67 244 -81 377 -47 135 34 244 118 295 228 23
49 27 70 27 152 0 86 -3 101 -31 160 -53 110 -106 153 -185 151 -66 -1 -111
-29 -138 -85 -31 -63 -26 -72 17 -26 34 34 45 40 82 40 36 0 48 -6 80 -38 49
-48 66 -107 50 -170 -24 -98 -70 -155 -155 -194 -73 -33 -201 -31 -310 6 -164
56 -280 153 -406 339 -238 354 -317 821 -228 1355 11 68 18 126 15 129 -2 3
-14 -26 -25 -64z"/>
<path d="M7671 3183 c-1 -6 8 -62 18 -125 103 -608 -22 -1151 -349 -1510 -192
-211 -526 -280 -673 -140 -35 33 -72 103 -81 154 -10 56 10 117 54 160 32 32
44 38 80 38 37 0 48 -6 82 -40 43 -46 48 -37 17 26 -27 56 -72 84 -138 85 -79
2 -132 -41 -185 -151 -28 -59 -31 -74 -31 -160 0 -82 4 -103 27 -152 51 -110
160 -194 295 -228 133 -34 246 -20 377 47 90 47 258 211 338 333 119 179 204
375 238 545 58 284 51 684 -14 950 -25 101 -54 190 -55 168z"/>
<path d="M1043 2780 c-18 -10 -41 -37 -52 -59 -11 -21 -25 -41 -31 -43 -12 -4
2 -60 25 -94 22 -35 87 -64 140 -64 89 0 139 49 139 136 0 59 -19 95 -67 124
-42 26 -112 26 -154 0z"/>
<path d="M11603 2780 c-48 -29 -67 -65 -67 -124 0 -87 50 -136 139 -136 53 0
118 29 140 64 23 34 37 90 25 94 -6 2 -20 22 -31 43 -11 22 -34 49 -52 59 -42
26 -112 26 -154 0z"/>
<path d="M2615 1263 c-33 -9 -65 -35 -81 -64 -32 -63 -5 -178 50 -214 34 -23
90 -37 94 -25 2 6 22 20 43 31 22 11 49 34 59 52 39 63 18 162 -42 201 -26 17
-93 27 -123 19z"/>
<path d="M10096 1260 c-59 -19 -96 -73 -96 -142 0 -56 29 -102 79 -127 21 -11
41 -25 43 -31 4 -12 60 2 94 25 55 36 82 151 50 214 -28 53 -106 81 -170 61z"/>
<path d="M4074 267 c-31 -29 -37 -41 -42 -88 -2 -30 -9 -59 -14 -66 -16 -20
22 -63 89 -100 33 -19 63 -16 120 12 65 33 88 73 81 144 -8 81 -66 131 -153
131 -37 0 -52 -6 -81 -33z"/>
<path d="M8565 281 c-50 -31 -68 -57 -73 -112 -7 -71 16 -111 81 -144 57 -28
87 -31 120 -13 67 38 105 81 89 101 -5 7 -12 36 -14 66 -5 47 -11 59 -42 88
-30 28 -43 33 -83 33 -29 0 -60 -7 -78 -19z"/>
</g>
</svg>
